<svg width="122" height="40" viewBox="0 0 122 40" fill="none" xmlns="http://www.w3.org/2000/svg">
<path d="M17.6553 2H0V19.6552H17.6553V2Z" fill="#E94949"/>
<path d="M8.82766 37.3114C13.703 37.3114 17.6553 33.3592 17.6553 28.4838C17.6553 23.6085 13.703 19.6562 8.82766 19.6562C3.95228 19.6562 0 23.6085 0 28.4838C0 33.3592 3.95228 37.3114 8.82766 37.3114Z" fill="#C190D6"/>
<path d="M35.3096 2H17.6543V19.6552H35.3096V2Z" fill="#C190D6"/>
<path d="M35.3096 19.6562H17.6543V37.3114H35.3096V19.6562Z" fill="#495DE9"/>
<path d="M68.8032 10V28.8106H65.16V16.5756L60.2938 28.8106H57.5354L52.6432 16.5756V28.8106H49V10H53.1376L58.9146 23.9867L64.6916 10H68.8032Z" fill="#5A3E65"/>
<path d="M79.1784 29.0531C77.7905 29.0531 76.5414 28.7387 75.4311 28.1099C74.3208 27.4631 73.4447 26.5558 72.8029 25.388C72.1783 24.2202 71.866 22.8728 71.866 21.3456C71.866 19.8185 72.187 18.471 72.8289 17.3032C73.4881 16.1354 74.3816 15.2371 75.5092 14.6083C76.6368 13.9615 77.8946 13.6381 79.2825 13.6381C80.6703 13.6381 81.9281 13.9615 83.0557 14.6083C84.1834 15.2371 85.0682 16.1354 85.7101 17.3032C86.3693 18.471 86.6989 19.8185 86.6989 21.3456C86.6989 22.8728 86.3606 24.2202 85.684 25.388C85.0248 26.5558 84.1227 27.4631 82.9777 28.1099C81.85 28.7387 80.5836 29.0531 79.1784 29.0531ZM79.1784 25.7653C79.8376 25.7653 80.4535 25.6036 81.026 25.2802C81.6158 24.9389 82.0842 24.4358 82.4312 23.7711C82.7782 23.1063 82.9517 22.2978 82.9517 21.3456C82.9517 19.9263 82.5873 18.8394 81.8587 18.0848C81.1474 17.3122 80.2713 16.926 79.2304 16.926C78.1895 16.926 77.3134 17.3122 76.6021 18.0848C75.9082 18.8394 75.5612 19.9263 75.5612 21.3456C75.5612 22.765 75.8995 23.8609 76.5761 24.6334C77.2701 25.388 78.1375 25.7653 79.1784 25.7653Z" fill="#5A3E65"/>
<path d="M96.1446 29.0531C94.7567 29.0531 93.5077 28.7387 92.3974 28.1099C91.2871 27.4631 90.411 26.5558 89.7691 25.388C89.1445 24.2202 88.8323 22.8728 88.8323 21.3456C88.8323 19.8185 89.1532 18.471 89.7951 17.3032C90.4543 16.1354 91.3478 15.2371 92.4754 14.6083C93.6031 13.9615 94.8608 13.6381 96.2487 13.6381C97.6366 13.6381 98.8943 13.9615 100.022 14.6083C101.15 15.2371 102.034 16.1354 102.676 17.3032C103.336 18.471 103.665 19.8185 103.665 21.3456C103.665 22.8728 103.327 24.2202 102.65 25.388C101.991 26.5558 101.089 27.4631 99.9439 28.1099C98.8163 28.7387 97.5498 29.0531 96.1446 29.0531ZM96.1446 25.7653C96.8039 25.7653 97.4197 25.6036 97.9922 25.2802C98.5821 24.9389 99.0505 24.4358 99.3974 23.7711C99.7444 23.1063 99.9179 22.2978 99.9179 21.3456C99.9179 19.9263 99.5536 18.8394 98.8249 18.0848C98.1137 17.3122 97.2376 16.926 96.1967 16.926C95.1558 16.926 94.2797 17.3122 93.5684 18.0848C92.8744 18.8394 92.5275 19.9263 92.5275 21.3456C92.5275 22.765 92.8658 23.8609 93.5424 24.6334C94.2363 25.388 95.1037 25.7653 96.1446 25.7653Z" fill="#5A3E65"/>
<path d="M114.698 13.6651C116.416 13.6651 117.804 14.231 118.862 15.3629C119.92 16.4768 120.449 18.0399 120.449 20.0521V28.8106H116.806V20.5641C116.806 19.3783 116.52 18.4711 115.947 17.8422C115.375 17.1955 114.594 16.8721 113.605 16.8721C112.599 16.8721 111.801 17.1955 111.211 17.8422C110.639 18.4711 110.352 19.3783 110.352 20.5641V28.8106H106.709V13.8807H110.352V15.7402C110.838 15.0934 111.454 14.5904 112.2 14.231C112.963 13.8537 113.796 13.6651 114.698 13.6651Z" fill="#5A3E65"/>
</svg>
