<svg width="130" height="40" viewBox="0 0 130 40" fill="none" xmlns="http://www.w3.org/2000/svg">
<path d="M35.3897 20.1226C35.3897 29.5058 27.7831 37.1124 18.3999 37.1124C9.01679 37.1124 1.41016 29.5058 1.41016 20.1226C1.41016 10.7394 9.01679 3.13281 18.3999 3.13281C27.7831 3.13281 35.3897 10.7394 35.3897 20.1226Z" fill="#51BDDF"/>
<path d="M53.7129 20.1226C53.7129 29.5058 46.1808 37.1124 36.8896 37.1124C27.5985 37.1124 20.0664 29.5058 20.0664 20.1226C20.0664 10.7394 27.5985 3.13281 36.8896 3.13281C46.1808 3.13281 53.7129 10.7394 53.7129 20.1226Z" fill="#FF7917"/>
<path d="M27.6907 34.3491C32.3273 31.3153 35.3905 26.0763 35.3905 20.1218C35.3905 14.1673 32.3273 8.92823 27.6907 5.89453C23.0996 8.92823 20.0664 14.1673 20.0664 20.1218C20.0664 26.0763 23.0996 31.3153 27.6907 34.3491Z" fill="#5D2C02"/>
<path d="M68.4746 27.8869C67.469 27.8869 66.5599 27.7147 65.7472 27.3703C64.9482 27.0259 64.3146 26.53 63.8462 25.8826C63.3779 25.2352 63.1368 24.4707 63.123 23.5891H66.2224C66.2637 24.1814 66.4703 24.6498 66.8423 24.9941C67.228 25.3385 67.7514 25.5107 68.4126 25.5107C69.0876 25.5107 69.6179 25.3523 70.0036 25.0354C70.3893 24.7049 70.5822 24.2778 70.5822 23.7544C70.5822 23.3274 70.4513 22.9761 70.1896 22.7006C69.9278 22.4251 69.5972 22.2116 69.1978 22.0601C68.8121 21.8948 68.2749 21.7157 67.5861 21.5229C66.6494 21.2474 65.8849 20.9787 65.2926 20.717C64.714 20.4415 64.2113 20.0352 63.7842 19.4979C63.371 18.9469 63.1644 18.2169 63.1644 17.3077C63.1644 16.4537 63.3779 15.7098 63.8049 15.0762C64.2319 14.4426 64.8311 13.9604 65.6025 13.6298C66.3739 13.2855 67.2555 13.1133 68.2473 13.1133C69.735 13.1133 70.9403 13.4783 71.8632 14.2084C72.7999 14.9247 73.3165 15.9302 73.4129 17.2251H70.2309C70.2033 16.7292 69.9898 16.3228 69.5904 16.006C69.2047 15.6754 68.6881 15.5101 68.0407 15.5101C67.4759 15.5101 67.0213 15.6547 66.677 15.944C66.3464 16.2333 66.1811 16.6534 66.1811 17.2044C66.1811 17.5901 66.305 17.9138 66.553 18.1756C66.8147 18.4235 67.1315 18.6301 67.5035 18.7954C67.8892 18.9469 68.4264 19.126 69.1151 19.3326C70.0518 19.6081 70.8163 19.8836 71.4086 20.1591C72.001 20.4346 72.5106 20.8479 72.9377 21.3989C73.3647 21.9499 73.5782 22.6731 73.5782 23.5684C73.5782 24.3398 73.3785 25.0561 72.979 25.7173C72.5795 26.3785 71.9941 26.9088 71.2227 27.3083C70.4513 27.694 69.5353 27.8869 68.4746 27.8869Z" fill="black"/>
<path d="M83.0759 27.8869C81.7259 27.8869 80.4862 27.57 79.3566 26.9364C78.2271 26.3027 77.3317 25.428 76.6705 24.3123C76.0093 23.1827 75.6787 21.9085 75.6787 20.4897C75.6787 19.0847 76.0093 17.8243 76.6705 16.7085C77.3317 15.579 78.2271 14.6974 79.3566 14.0637C80.4862 13.4301 81.7259 13.1133 83.0759 13.1133C84.4396 13.1133 85.6793 13.4301 86.7951 14.0637C87.9246 14.6974 88.8131 15.579 89.4605 16.7085C90.1217 17.8243 90.4523 19.0847 90.4523 20.4897C90.4523 21.9085 90.1217 23.1827 89.4605 24.3123C88.8131 25.428 87.9246 26.3027 86.7951 26.9364C85.6655 27.57 84.4258 27.8869 83.0759 27.8869ZM83.0759 25.3041C83.9437 25.3041 84.7082 25.1112 85.3694 24.7255C86.0306 24.326 86.5471 23.7613 86.9191 23.0312C87.291 22.3011 87.4769 21.454 87.4769 20.4897C87.4769 19.5255 87.291 18.6852 86.9191 17.9689C86.5471 17.2389 86.0306 16.681 85.3694 16.2953C84.7082 15.9096 83.9437 15.7167 83.0759 15.7167C82.208 15.7167 81.4366 15.9096 80.7617 16.2953C80.1005 16.681 79.5839 17.2389 79.212 17.9689C78.8401 18.6852 78.6541 19.5255 78.6541 20.4897C78.6541 21.454 78.8401 22.3011 79.212 23.0312C79.5839 23.7613 80.1005 24.326 80.7617 24.7255C81.4366 25.1112 82.208 25.3041 83.0759 25.3041Z" fill="black"/>
<path d="M95.7923 25.4487H100.545V27.7422H92.8996V13.3199H95.7923V25.4487Z" fill="black"/>
<path d="M111.522 24.9941H105.778L104.827 27.7422H101.79L106.976 13.2992H110.344L115.53 27.7422H112.472L111.522 24.9941ZM110.737 22.6799L108.65 16.6465L106.563 22.6799H110.737Z" fill="black"/>
<path d="M125.203 27.7422L122.021 22.1221H120.657V27.7422H117.764V13.3199H123.178C124.293 13.3199 125.244 13.5196 126.029 13.9191C126.814 14.3048 127.4 14.8351 127.785 15.5101C128.185 16.1713 128.385 16.9151 128.385 17.7416C128.385 18.6921 128.109 19.553 127.558 20.3244C127.007 21.0821 126.188 21.6055 125.099 21.8948L128.55 27.7422H125.203ZM120.657 19.9525H123.074C123.86 19.9525 124.445 19.7666 124.831 19.3946C125.216 19.0089 125.409 18.4786 125.409 17.8036C125.409 17.1424 125.216 16.6328 124.831 16.2746C124.445 15.9027 123.86 15.7167 123.074 15.7167H120.657V19.9525Z" fill="black"/>
</svg>
