<svg width="130" height="40" viewBox="0 0 130 40" fill="none" xmlns="http://www.w3.org/2000/svg">
<path d="M0 20C0 10.5719 0 5.85786 3.02341 2.92893C6.04682 0 10.9129 0 20.6452 0C30.3774 0 35.2435 0 38.2669 2.92893C41.2903 5.85786 41.2903 10.5719 41.2903 20C41.2903 29.4281 41.2903 34.1421 38.2669 37.0711C35.2435 40 30.3774 40 20.6452 40C10.9129 40 6.04682 40 3.02341 37.0711C0 34.1421 0 29.4281 0 20Z" fill="#243A5A"/>
<path d="M24.7746 24C25.3448 24 25.8173 24.4521 25.7041 24.9934C25.5039 25.9494 25.0177 26.8355 24.2952 27.5355C23.3273 28.4732 22.0145 29 20.6456 29C19.2767 29 17.964 28.4732 16.9961 27.5355C16.2735 26.8355 15.7873 25.9494 15.5872 24.9934C15.4739 24.4521 15.9465 24 16.5166 24H24.7746Z" fill="#2DF8BB"/>
<path d="M26.9452 17.7765C26.3945 17.9194 26.0573 18.4775 26.3365 18.959C26.6304 19.4658 27.0369 19.9081 27.5314 20.2514C28.3079 20.7904 29.2532 21.052 30.2065 20.9914C31.1597 20.9309 32.0618 20.5521 32.759 19.9195C33.4563 19.2869 33.9054 18.4396 34.0301 17.5221C34.1548 16.6046 33.9473 15.6736 33.4428 14.8877C32.9384 14.1019 32.1682 13.5098 31.2637 13.2123C30.3591 12.9148 29.3761 12.9304 28.482 13.2564C27.9126 13.464 27.4019 13.7893 26.9826 14.2051C26.5842 14.6002 26.7608 15.2239 27.2546 15.5L27.7782 15.7929C28.5746 16.2384 28.4176 17.3943 27.5293 17.6249L26.9452 17.7765Z" fill="#2DF8BB"/>
<path d="M14.3468 17.7765C14.8975 17.9194 15.2348 18.4775 14.9555 18.959C14.6616 19.4658 14.2551 19.9081 13.7607 20.2514C12.9842 20.7904 12.0388 21.052 11.0856 20.9914C10.1323 20.9309 9.23025 20.5521 8.53303 19.9195C7.83581 19.2869 7.38658 18.4396 7.26189 17.5221C7.13721 16.6046 7.34476 15.6736 7.84922 14.8877C8.35366 14.1019 9.12379 13.5098 10.0284 13.2123C10.9329 12.9148 11.916 12.9304 12.8101 13.2564C13.3794 13.464 13.8902 13.7893 14.3095 14.2051C14.7079 14.6002 14.5312 15.2239 14.0374 15.5L13.5138 15.7929C12.7174 16.2384 12.8745 17.3943 13.7628 17.6249L14.3468 17.7765Z" fill="#2DF8BB"/>
<path d="M56.238 27.9482C56.6886 27.9482 57.1345 27.8903 57.5759 27.7745C58.0172 27.6498 58.4126 27.4716 58.762 27.2401C59.1114 26.9996 59.3918 26.7101 59.6033 26.3716C59.8148 26.0242 59.9205 25.6234 59.9205 25.1691C59.9205 24.6257 59.7734 24.1447 59.4792 23.7261C59.1941 23.2985 58.8172 22.911 58.3482 22.5637C57.8793 22.2074 57.3414 21.8733 56.7345 21.5616C56.1369 21.2498 55.5254 20.938 54.9002 20.6263C54.2749 20.3145 53.6589 19.9894 53.052 19.6509C52.4544 19.3035 51.9211 18.9205 51.4521 18.5019C50.9832 18.0743 50.6016 17.6022 50.3074 17.0856C50.0224 16.56 49.8798 15.9588 49.8798 15.2818C49.8798 14.6049 50.0086 13.9769 50.266 13.3979C50.5327 12.8189 50.9188 12.3201 51.4246 11.9015C51.9303 11.4739 52.5509 11.1399 53.2865 10.8994C54.0313 10.6589 54.8818 10.5386 55.8381 10.5386C56.7024 10.5386 57.4747 10.6277 58.1551 10.8058C58.8355 10.984 59.4332 11.2468 59.9481 11.5941C60.463 11.9415 60.8998 12.3691 61.2584 12.8768C61.617 13.3845 61.9066 13.9724 62.1273 14.6405L60.555 15.3353C60.3711 14.7919 60.1366 14.2976 59.8516 13.8522C59.5665 13.3979 59.2263 13.0104 58.8309 12.6898C58.4356 12.3691 57.9758 12.1241 57.4517 11.9549C56.9368 11.7768 56.353 11.6877 55.7001 11.6877C55.1209 11.6877 54.6151 11.7678 54.183 11.9282C53.7508 12.0796 53.3876 12.2845 53.0934 12.5428C52.8084 12.7922 52.5923 13.0772 52.4452 13.3979C52.3073 13.7097 52.2383 14.0303 52.2383 14.3599C52.2383 14.8231 52.3854 15.2507 52.6796 15.6426C52.9739 16.0256 53.3647 16.3908 53.852 16.7382C54.3393 17.0767 54.891 17.4063 55.507 17.7269C56.1323 18.0476 56.7667 18.3727 57.4104 18.7023C58.054 19.0319 58.6838 19.3748 59.2999 19.7311C59.9251 20.0874 60.4814 20.4793 60.9687 20.9069C61.4561 21.3255 61.8468 21.7887 62.1411 22.2964C62.4353 22.7952 62.5824 23.3564 62.5824 23.9799C62.5824 24.6836 62.4445 25.3472 62.1687 25.9707C61.8928 26.5854 61.479 27.1243 60.9274 27.5874C60.3757 28.0417 59.6907 28.4025 58.8723 28.6697C58.054 28.9369 57.1023 29.0705 56.0173 29.0705C55.1347 29.0705 54.3485 28.977 53.6589 28.79C52.9693 28.6029 52.3578 28.3312 51.8245 27.9749C51.3004 27.6186 50.8499 27.1866 50.4729 26.6789C50.0959 26.1623 49.7879 25.5744 49.5488 24.9152L51.1901 24.2605C51.3832 24.8395 51.6406 25.3561 51.9625 25.8104C52.2935 26.2647 52.6751 26.6522 53.1072 26.9728C53.5394 27.2846 54.0175 27.5251 54.5416 27.6943C55.0749 27.8636 55.6404 27.9482 56.238 27.9482Z" fill="#243A5A"/>
<path d="M67.2752 14.7207H68.0751V17.5532C68.4337 17.1791 68.8383 16.8228 69.2888 16.4843C69.7394 16.1369 70.2037 15.8341 70.6818 15.5758C71.1599 15.3085 71.6381 15.0992 72.1162 14.9478C72.5943 14.7964 73.0495 14.7207 73.4816 14.7207C73.8954 14.7207 74.3138 14.7919 74.7367 14.9344C75.1689 15.077 75.5642 15.2774 75.9228 15.5357C76.2906 15.794 76.6032 16.1013 76.8607 16.4576C77.1274 16.805 77.3021 17.188 77.3848 17.6067C77.6147 17.2058 77.9319 16.8317 78.3365 16.4843C78.7502 16.128 79.2054 15.8207 79.7019 15.5624C80.1984 15.3041 80.7225 15.0992 81.2742 14.9478C81.8351 14.7964 82.3822 14.7207 82.9155 14.7207C83.4488 14.7207 83.9453 14.8365 84.405 15.068C84.8739 15.2907 85.2831 15.598 85.6325 15.99C85.9819 16.373 86.2578 16.8273 86.46 17.3528C86.6623 17.8694 86.7635 18.4217 86.7635 19.0096V28.6563H83.9637V19.3837C83.9637 19.0007 83.8947 18.6399 83.7568 18.3014C83.6281 17.9541 83.4488 17.6512 83.2189 17.3929C82.989 17.1346 82.7178 16.9297 82.4052 16.7783C82.1017 16.6268 81.7799 16.5511 81.4397 16.5511C81.0535 16.5511 80.6581 16.6046 80.2536 16.7115C79.8582 16.8095 79.4812 16.9475 79.1226 17.1257C78.764 17.3038 78.4376 17.5131 78.1434 17.7536C77.8491 17.9852 77.6147 18.2346 77.44 18.5019V28.6563H74.6402V19.3837C74.6402 19.0007 74.5712 18.6399 74.4333 18.3014C74.2954 17.9541 74.1115 17.6512 73.8816 17.3929C73.6517 17.1346 73.3805 16.9297 73.0679 16.7783C72.7552 16.6268 72.4288 16.5511 72.0886 16.5511C71.73 16.5511 71.3576 16.6046 70.9715 16.7115C70.5945 16.8184 70.2221 16.9609 69.8543 17.139C69.4957 17.3172 69.1601 17.5265 68.8475 17.767C68.5348 17.9986 68.2774 18.2435 68.0751 18.5019V28.6563H65.2615V15.4822L67.2752 14.7207Z" fill="#243A5A"/>
<path d="M92.3666 15.4956L94.3389 14.7207H95.1526V28.6563H92.3666V15.4956ZM92.146 9.73695C92.146 9.52317 92.1873 9.32275 92.2701 9.1357C92.3528 8.94864 92.4678 8.78385 92.6149 8.64134C92.762 8.49882 92.9321 8.38747 93.1252 8.30731C93.3183 8.22714 93.5252 8.18706 93.7458 8.18706C93.9665 8.18706 94.1734 8.22714 94.3665 8.30731C94.5596 8.38747 94.7297 8.49882 94.8768 8.64134C95.0239 8.78385 95.1389 8.94864 95.2216 9.1357C95.3044 9.32275 95.3457 9.52317 95.3457 9.73695C95.3457 9.95073 95.3044 10.1511 95.2216 10.3382C95.1389 10.5253 95.0239 10.69 94.8768 10.8326C94.7297 10.9751 94.5596 11.0864 94.3665 11.1666C94.1734 11.2468 93.9665 11.2868 93.7458 11.2868C93.5252 11.2868 93.3183 11.2468 93.1252 11.1666C92.9321 11.0864 92.762 10.9751 92.6149 10.8326C92.4678 10.69 92.3528 10.5253 92.2701 10.3382C92.1873 10.1511 92.146 9.95073 92.146 9.73695Z" fill="#243A5A"/>
<path d="M101.528 28.6563H98.7144V8.77495L100.714 8H101.528V28.6563Z" fill="#243A5A"/>
<path d="M110.869 28.9503C109.912 28.9503 109.011 28.7766 108.165 28.4292C107.329 28.0818 106.598 27.6097 105.973 27.0129C105.347 26.4161 104.851 25.7169 104.483 24.9152C104.124 24.1046 103.945 23.2451 103.945 22.3365C103.945 21.2409 104.111 20.2299 104.442 19.3035C104.773 18.3683 105.242 17.5621 105.848 16.8852C106.455 16.2082 107.182 15.6782 108.028 15.2952C108.883 14.9122 109.834 14.7207 110.883 14.7207C111.802 14.7207 112.648 14.881 113.42 15.2017C114.193 15.5134 114.855 15.9365 115.406 16.471C115.967 16.9965 116.399 17.6067 116.703 18.3014C117.015 18.9962 117.172 19.7222 117.172 20.4793H106.648C106.648 21.3968 106.768 22.2474 107.007 23.0313C107.255 23.8151 107.6 24.4921 108.041 25.0622C108.483 25.6323 109.007 26.0776 109.614 26.3983C110.22 26.719 110.887 26.8793 111.614 26.8793C112.22 26.8793 112.804 26.7858 113.365 26.5987C113.926 26.4028 114.432 26.1489 114.882 25.8371C115.342 25.5254 115.733 25.1691 116.055 24.7682C116.376 24.3674 116.602 23.9532 116.73 23.5257L117.544 23.873C117.342 24.5767 117.015 25.2359 116.565 25.8505C116.114 26.4651 115.586 27.004 114.979 27.4672C114.381 27.9215 113.728 28.2822 113.02 28.5494C112.312 28.8167 111.595 28.9503 110.869 28.9503ZM113.655 19.3837C113.655 18.8671 113.558 18.3861 113.365 17.9407C113.181 17.4953 112.924 17.1123 112.593 16.7916C112.262 16.4621 111.876 16.2037 111.434 16.0167C110.993 15.8296 110.519 15.7361 110.014 15.7361C109.591 15.7361 109.186 15.8296 108.8 16.0167C108.414 16.1948 108.069 16.4487 107.765 16.7783C107.462 17.0989 107.209 17.482 107.007 17.9273C106.814 18.3727 106.699 18.8537 106.662 19.3703L113.655 19.3837Z" fill="#243A5A"/>
<path d="M121.933 14.7207H122.361L122.733 17.5131C122.954 17.1034 123.23 16.7293 123.561 16.3908C123.892 16.0523 124.255 15.7584 124.65 15.509C125.055 15.2596 125.478 15.068 125.919 14.9344C126.37 14.7919 126.825 14.7207 127.285 14.7207C127.699 14.7207 128.103 14.7741 128.499 14.881C128.903 14.9879 129.28 15.1571 129.629 15.3887L128.747 17.6735C128.563 17.4775 128.37 17.3216 128.168 17.2058C127.965 17.0811 127.758 16.9876 127.547 16.9252C127.335 16.854 127.119 16.8095 126.899 16.7916C126.678 16.7738 126.457 16.7649 126.237 16.7649C125.887 16.7649 125.542 16.8139 125.202 16.9119C124.871 17.0099 124.554 17.1568 124.251 17.3528C123.947 17.5399 123.667 17.7848 123.409 18.0877C123.152 18.3816 122.926 18.729 122.733 19.1298V28.6563H119.934V15.4689L121.933 14.7207Z" fill="#243A5A"/>
</svg>
