<svg width="410" height="130" viewBox="0 0 410 130" fill="none" xmlns="http://www.w3.org/2000/svg">
<path d="M119.578 87.1903C116.177 87.1903 113.116 86.4251 110.395 84.8947C107.675 83.3644 105.493 81.2672 103.849 78.6032C102.262 75.8826 101.468 72.8219 101.468 69.421C101.468 66.7004 101.978 64.1214 102.999 61.6842C104.019 59.2469 105.436 57.0931 107.25 55.2226C109.064 53.3522 111.189 51.8785 113.626 50.8016C116.064 49.7247 118.671 49.1862 121.448 49.1862C124.962 49.1862 128.136 50.0081 130.97 51.6518C133.804 53.2955 136.043 55.4777 137.687 58.1984C139.387 60.8623 140.238 63.7814 140.238 66.9555C140.238 70.583 139.444 73.9555 137.857 77.0729C136.327 80.1336 134.031 82.5992 130.97 84.4696C127.966 86.2834 124.169 87.1903 119.578 87.1903ZM121.278 83.4494C122.468 83.4494 123.489 83.2227 124.339 82.7692C125.246 82.2591 125.983 81.5223 126.549 80.5587C127.23 79.4251 127.683 77.8947 127.91 75.9676C128.193 73.9838 128.335 71.6599 128.335 68.9959C128.335 65.9352 127.995 63.2146 127.315 60.834C126.634 58.3967 125.671 56.4696 124.424 55.0526C123.234 53.6356 121.817 52.9271 120.173 52.9271C119.266 52.9271 118.444 53.0971 117.707 53.4372C116.97 53.7206 116.319 54.1457 115.752 54.7125C114.788 55.8461 114.108 57.4615 113.711 59.5587C113.371 61.6559 113.201 64.2348 113.201 67.2955C113.201 70.0162 113.541 72.6235 114.221 75.1174C114.958 77.5547 115.922 79.5668 117.112 81.1539C118.359 82.6842 119.748 83.4494 121.278 83.4494Z" fill="black"/>
<path d="M144.398 108.275C144.001 108.275 143.604 108.162 143.207 107.935C142.867 107.765 142.697 107.482 142.697 107.085C142.697 106.632 142.867 106.263 143.207 105.98C143.604 105.753 144.086 105.555 144.653 105.385C145.843 104.988 146.665 104.563 147.118 104.109C147.628 103.713 147.883 103.061 147.883 102.154V61.4291C147.883 60.6923 147.742 59.9838 147.458 59.3036C147.175 58.6235 146.778 58.0283 146.268 57.5182C145.758 56.9514 145.106 56.6113 144.313 56.498C143.973 56.3846 143.717 56.2429 143.547 56.0729C143.377 55.8461 143.292 55.4777 143.292 54.9676C143.292 54.5141 143.377 54.1741 143.547 53.9473C143.717 53.7206 143.944 53.5789 144.228 53.5222C146.211 53.0688 148.337 52.4737 150.604 51.7368C152.871 51 154.827 50.2348 156.471 49.4413C156.697 49.3279 156.924 49.2145 157.151 49.1012C157.434 48.9311 157.689 48.8461 157.916 48.8461C158.256 48.8461 158.454 48.9595 158.511 49.1862C158.624 49.3562 158.681 49.583 158.681 49.8664C158.681 50.3198 158.596 51.085 158.426 52.1619C158.313 53.1822 158.256 54.0607 158.256 54.7976C158.256 55.3644 158.313 55.7044 158.426 55.8178C158.993 55.251 159.985 54.4858 161.402 53.5222C162.875 52.5587 164.547 51.7085 166.418 50.9716C168.288 50.2348 170.102 49.8664 171.859 49.8664C174.92 49.8664 177.499 50.6882 179.596 52.332C181.75 53.919 183.394 55.9878 184.527 58.5384C185.661 61.0324 186.228 63.668 186.228 66.4453C186.228 69.1093 185.718 71.6883 184.697 74.1822C183.734 76.6761 182.345 78.9433 180.531 80.9838C178.718 82.9676 176.62 84.5547 174.24 85.745C171.859 86.9352 169.309 87.5304 166.588 87.5304C165.964 87.5304 165.199 87.4454 164.292 87.2753C163.442 87.1053 162.564 86.8786 161.657 86.5951C160.807 86.3117 160.013 86.0284 159.276 85.745C159.22 85.745 159.163 85.83 159.106 86C159.049 86.1701 158.993 86.3684 158.936 86.5951C158.936 86.8219 158.936 87.0486 158.936 87.2753V101.389C158.936 102.126 159.106 102.749 159.446 103.259C159.843 103.769 160.381 104.166 161.062 104.449C161.742 104.789 162.564 105.101 163.527 105.385C164.094 105.555 164.547 105.753 164.888 105.98C165.228 106.263 165.398 106.632 165.398 107.085C165.398 107.425 165.228 107.709 164.888 107.935C164.604 108.162 164.292 108.275 163.952 108.275C162.252 108.275 160.466 108.19 158.596 108.02C156.782 107.907 155.139 107.85 153.665 107.85C152.701 107.85 151.709 107.879 150.689 107.935C149.726 107.992 148.705 108.049 147.628 108.105C146.608 108.219 145.531 108.275 144.398 108.275ZM166.333 83.6194C166.956 83.6194 167.693 83.3927 168.543 82.9393C169.45 82.4292 170.329 81.6356 171.179 80.5587C172.086 79.4818 172.823 78.0364 173.39 76.2227C174.013 74.4089 174.325 72.17 174.325 69.5061C174.325 66.3887 174.013 63.9231 173.39 62.1093C172.766 60.2388 172.001 58.8502 171.094 57.9433C170.187 57.0364 169.252 56.4413 168.288 56.1579C167.381 55.8178 166.588 55.6478 165.908 55.6478C164.888 55.6478 163.839 55.8745 162.762 56.3279C161.685 56.7814 160.807 57.3198 160.126 57.9433C159.446 58.5668 159.106 59.1336 159.106 59.6437C159.106 60.0971 159.106 60.9757 159.106 62.2793C159.106 63.583 159.078 65.0283 159.021 66.6154C159.021 68.2024 158.993 69.6478 158.936 70.9514C158.936 72.2551 158.936 73.1619 158.936 73.6721C158.936 74.9757 159.22 76.4211 159.786 78.0081C160.41 79.5385 161.26 80.8705 162.337 82.0041C163.471 83.081 164.803 83.6194 166.333 83.6194Z" fill="black"/>
<path d="M193.047 110.061C191.573 110.061 190.156 109.551 188.796 108.53C187.435 107.51 186.755 106.235 186.755 104.704C186.755 103.628 187.038 102.551 187.605 101.474C188.172 100.453 189.051 99.9433 190.241 99.9433C191.148 99.9433 192.055 100.085 192.962 100.368C193.925 100.709 194.832 100.85 195.682 100.794C196.532 100.68 197.128 100.453 197.468 100.113C197.808 99.83 198.204 99.2632 198.658 98.413C199.055 97.7328 199.423 97.0527 199.763 96.3725C200.16 95.749 200.585 94.9272 201.038 93.9069C201.549 92.9433 202.172 91.668 202.909 90.081C203.589 88.5506 203.929 87.1903 203.929 86C203.929 85.1498 203.787 84.3846 203.504 83.7045C203.277 82.9676 203.022 82.2591 202.739 81.579L192.281 57.8583C191.771 56.5546 191.204 55.4777 190.581 54.6275C189.957 53.7773 189.107 53.1822 188.03 52.8421C187.52 52.6154 187.123 52.3886 186.84 52.1619C186.557 51.8785 186.415 51.4818 186.415 50.9716C186.415 50.5749 186.67 50.3198 187.18 50.2064C187.69 50.0931 188.144 50.0364 188.54 50.0364C189.901 50.0364 191.034 50.0647 191.941 50.1214C192.905 50.1781 193.755 50.2348 194.492 50.2915C195.229 50.3481 195.966 50.3765 196.702 50.3765C197.949 50.3765 198.998 50.3481 199.848 50.2915C200.698 50.2348 201.605 50.1781 202.569 50.1214C203.532 50.0647 204.666 50.0364 205.97 50.0364C206.366 50.0364 206.792 50.1214 207.245 50.2915C207.698 50.4615 207.925 50.7449 207.925 51.1417C207.925 51.6518 207.698 52.0202 207.245 52.2469C206.848 52.417 206.423 52.6154 205.97 52.8421C205.346 53.0688 204.864 53.4089 204.524 53.8623C204.184 54.3158 204.014 55.0526 204.014 56.0729C204.014 56.5263 204.071 57.0648 204.184 57.6882C204.354 58.3117 204.609 59.0769 204.949 59.9838L210.221 72.8219C210.277 72.9919 210.362 73.0769 210.476 73.0769C210.532 73.0769 210.617 72.9919 210.731 72.8219L215.067 59.8137C215.237 59.3603 215.379 58.8218 215.492 58.1984C215.662 57.5182 215.747 56.9231 215.747 56.4129C215.747 55.4494 215.464 54.6842 214.897 54.1174C214.33 53.4939 213.735 53.0688 213.111 52.8421C212.658 52.672 212.204 52.4737 211.751 52.2469C211.354 52.0202 211.156 51.6518 211.156 51.1417C211.156 50.7449 211.383 50.4615 211.836 50.2915C212.289 50.1214 212.715 50.0364 213.111 50.0364C214.642 50.0931 215.832 50.1781 216.682 50.2915C217.532 50.3481 218.411 50.3765 219.318 50.3765C219.885 50.3765 220.395 50.3765 220.848 50.3765C221.358 50.3198 221.953 50.2631 222.634 50.2064C223.314 50.1498 224.136 50.0931 225.099 50.0364C225.496 50.0364 225.921 50.0931 226.375 50.2064C226.885 50.3198 227.14 50.5749 227.14 50.9716C227.14 51.4818 226.998 51.8785 226.715 52.1619C226.488 52.3886 226.119 52.6154 225.609 52.8421C224.532 53.1822 223.569 53.834 222.719 54.7976C221.868 55.7044 221.16 56.8097 220.593 58.1133L207.925 88.5506C207.472 89.6842 206.962 90.9028 206.395 92.2065C205.828 93.5668 205.233 94.9555 204.609 96.3725C204.043 97.7895 203.447 99.2348 202.824 100.709C202.2 102.182 201.577 103.628 200.953 105.045C200.273 106.688 199.225 107.935 197.808 108.785C196.391 109.636 194.804 110.061 193.047 110.061Z" fill="black"/>
<path d="M229.388 86.2551C228.991 86.2551 228.595 86.1701 228.198 86C227.858 85.7733 227.688 85.4615 227.688 85.0648C227.688 84.6113 227.886 84.2713 228.283 84.0445C228.68 83.7611 229.133 83.5344 229.643 83.3644C230.493 83.081 231.23 82.7692 231.854 82.4292C232.534 82.0324 232.874 81.2672 232.874 80.1336V60.664C232.874 59.417 232.676 58.3684 232.279 57.5182C231.939 56.668 231.259 56.1295 230.238 55.9028C230.012 55.8461 229.785 55.7044 229.558 55.4777C229.388 55.251 229.303 54.8826 229.303 54.3724C229.303 53.5789 229.586 53.0971 230.153 52.9271C232.08 52.4737 234.178 51.8785 236.445 51.1417C238.769 50.3482 240.752 49.5263 242.396 48.6761C242.623 48.5627 242.878 48.421 243.161 48.251C243.445 48.0809 243.7 47.9959 243.927 47.9959C244.267 47.9959 244.465 48.1093 244.522 48.336C244.635 48.506 244.692 48.7328 244.692 49.0162C244.692 49.4696 244.607 50.2065 244.437 51.2267C244.323 52.1903 244.267 53.0688 244.267 53.8623C244.267 54.089 244.267 54.3441 244.267 54.6275C244.323 54.9109 244.38 55.0809 244.437 55.1376C246.364 53.2672 248.319 51.8218 250.303 50.8016C252.287 49.7813 254.582 49.2712 257.19 49.2712C260.137 49.2712 262.603 50.3765 264.587 52.587C266.627 54.7409 267.647 57.6882 267.647 61.4291V80.1336C267.647 81.2672 267.959 82.0324 268.582 82.4292C269.263 82.7692 270.028 83.081 270.878 83.3644C271.331 83.5344 271.728 83.7611 272.068 84.0445C272.408 84.2713 272.578 84.6113 272.578 85.0648C272.578 85.4615 272.408 85.7733 272.068 86C271.785 86.1701 271.473 86.2551 271.133 86.2551C269.999 86.2551 268.923 86.1984 267.902 86.085C266.939 86.0284 265.975 85.9717 265.012 85.915C264.105 85.8583 263.141 85.83 262.121 85.83C261.157 85.83 260.194 85.8583 259.23 85.915C258.267 85.9717 257.303 86.0284 256.34 86.085C255.376 86.1984 254.327 86.2551 253.194 86.2551C252.854 86.2551 252.514 86.1701 252.174 86C251.89 85.7733 251.748 85.4615 251.748 85.0648C251.748 84.6113 251.918 84.2713 252.259 84.0445C252.599 83.7611 252.995 83.5344 253.449 83.3644C254.299 83.081 255.008 82.7692 255.574 82.4292C256.141 82.0324 256.425 81.2672 256.425 80.1336V63.2146C256.425 61.0607 255.914 59.3886 254.894 58.1984C253.931 56.9514 252.627 56.2996 250.983 56.2429C249.736 56.2429 248.631 56.4413 247.667 56.838C246.704 57.2348 245.712 57.7733 244.692 58.4534C244.465 58.6801 244.295 58.9352 244.182 59.2186C244.068 59.502 244.012 59.7854 244.012 60.0688V80.1336C244.012 81.2672 244.323 82.0324 244.947 82.4292C245.57 82.7692 246.279 83.081 247.072 83.3644C248.206 83.7045 248.773 84.2713 248.773 85.0648C248.773 85.4049 248.631 85.6883 248.348 85.915C248.064 86.1417 247.724 86.2551 247.327 86.2551C246.194 86.2551 245.145 86.1984 244.182 86.085C243.218 86.0284 242.311 85.9717 241.461 85.915C240.611 85.8583 239.676 85.83 238.655 85.83C237.692 85.83 236.7 85.8583 235.68 85.915C234.716 85.9717 233.696 86.0284 232.619 86.085C231.599 86.1984 230.522 86.2551 229.388 86.2551Z" fill="black"/>
<path d="M291.147 87.1903C288.087 87.1903 285.338 86.3968 282.9 84.8097C280.52 83.166 278.621 80.9555 277.204 78.1781C275.844 75.3441 275.164 72.1417 275.164 68.5708C275.164 65 275.985 61.7692 277.629 58.8785C279.273 55.9312 281.512 53.6073 284.346 51.9069C287.18 50.1498 290.297 49.2712 293.698 49.2712C296.135 49.2712 298.317 49.8097 300.245 50.8866C302.172 51.9069 303.702 53.2955 304.836 55.0526C306.026 56.8097 306.621 58.7935 306.621 61.004C306.621 63.1579 305.743 64.2348 303.985 64.2348H286.981C286.188 64.2348 285.593 64.4615 285.196 64.915C284.856 65.3684 284.686 66.1336 284.686 67.2105C284.686 69.3644 285.168 71.3482 286.131 73.1619C287.095 74.919 288.398 76.3077 290.042 77.3279C291.686 78.3482 293.585 78.8583 295.738 78.8583C297.382 78.8583 298.884 78.5466 300.245 77.9231C301.662 77.2996 303.05 76.4494 304.411 75.3725C304.637 75.2024 304.836 75.0607 305.006 74.9474C305.232 74.7773 305.431 74.6923 305.601 74.6923C306.168 74.6923 306.451 75.0607 306.451 75.7976C306.451 76.4211 306.224 77.2713 305.771 78.3482C305.204 79.7652 304.241 81.1822 302.88 82.5992C301.577 83.9595 299.933 85.0648 297.949 85.915C295.965 86.7652 293.698 87.1903 291.147 87.1903ZM286.981 60.664H292.083C293.67 60.664 294.775 60.6356 295.398 60.5789C296.022 60.5223 296.589 60.4089 297.099 60.2388C297.382 60.1255 297.609 59.8421 297.779 59.3886C297.949 58.9352 298.034 58.4251 298.034 57.8583C298.034 56.3279 297.496 55.081 296.419 54.1174C295.398 53.1538 294.123 52.672 292.593 52.672C291.402 52.672 290.269 53.0121 289.192 53.6923C288.172 54.3158 287.321 55.166 286.641 56.2429C286.018 57.2631 285.734 58.3401 285.791 59.4737C285.791 60.2672 286.188 60.664 286.981 60.664Z" fill="black"/>
<path d="M318.778 87.1903C317.248 87.1903 315.831 86.8219 314.527 86.085C313.224 85.3482 312.175 84.3846 311.382 83.1943C310.645 82.0041 310.276 80.7004 310.276 79.2834C310.276 77.3563 310.871 75.7409 312.062 74.4372C313.309 73.1336 315.122 71.9717 317.503 70.9514L325.07 67.6356C326.203 67.1255 326.884 66.6721 327.11 66.2753C327.394 65.8785 327.535 65.1417 327.535 64.0648L327.62 59.2186C327.677 57.6316 327.394 56.3846 326.77 55.4777C326.147 54.5141 325.212 54.0324 323.965 54.0324C323.228 54.0324 322.491 54.2024 321.754 54.5425C321.017 54.8259 320.45 55.166 320.054 55.5627C319.884 55.7895 319.742 56.0729 319.629 56.4129C319.572 56.6963 319.544 57.0081 319.544 57.3482C319.544 57.6882 319.572 58.1133 319.629 58.6235C319.685 59.0769 319.714 59.4737 319.714 59.8137C319.714 60.1538 319.26 60.6073 318.353 61.1741C317.446 61.6842 316.398 62.166 315.207 62.6194C314.017 63.0162 312.997 63.2146 312.147 63.2146C311.75 63.2146 311.382 63.0445 311.042 62.7044C310.758 62.3644 310.616 61.9393 310.616 61.4291C310.616 60.5223 310.928 59.6437 311.552 58.7935C312.175 57.8866 313.195 56.8664 314.612 55.7328C316.086 54.4858 317.701 53.3805 319.459 52.417C321.216 51.4534 322.944 50.6882 324.645 50.1214C326.402 49.5546 327.876 49.2712 329.066 49.2712C332.127 49.2712 334.564 50.2631 336.378 52.2469C338.191 54.1741 339.042 56.753 338.928 59.9838L338.503 77.1579C338.446 78.4615 338.673 79.5668 339.183 80.4737C339.693 81.3806 340.317 81.834 341.054 81.834C342.131 81.834 343.066 81.4656 343.859 80.7287C344.029 80.5587 344.199 80.4737 344.369 80.4737C344.653 80.4737 344.88 80.5587 345.05 80.7287C345.276 80.8988 345.39 81.1255 345.39 81.4089C345.39 82.0891 344.88 82.9676 343.859 84.0445C342.782 85.0648 341.649 85.83 340.459 86.3401C339.268 86.9069 338.021 87.1903 336.718 87.1903C333.544 87.1903 330.908 85.5749 328.811 82.3441H328.641C326.77 84.0445 325.07 85.2632 323.539 86C322.066 86.7935 320.479 87.1903 318.778 87.1903ZM323.88 81.664C324.503 81.664 325.013 81.579 325.41 81.4089C325.807 81.1822 326.203 80.8421 326.6 80.3887C326.77 80.1619 326.912 79.8785 327.025 79.5385C327.139 79.1417 327.195 78.6883 327.195 78.1781L327.45 72.0567C327.45 71.4899 327.365 71.1215 327.195 70.9514C327.025 70.7814 326.827 70.6964 326.6 70.6964C326.487 70.6964 326.345 70.7247 326.175 70.7814C326.005 70.838 325.807 70.9231 325.58 71.0364C323.936 71.83 322.718 72.6518 321.924 73.502C321.131 74.2955 320.734 75.5992 320.734 77.413C320.734 79.0567 321.074 80.1903 321.754 80.8138C322.434 81.3806 323.143 81.664 323.88 81.664Z" fill="black"/>
<path d="M362.859 87.1903C359.119 87.1903 356.313 86.2551 354.442 84.3846C352.572 82.4575 351.637 79.7652 351.637 76.3077V56.753C351.637 56.2429 351.438 55.8745 351.042 55.6478C350.702 55.421 350.021 55.2793 349.001 55.2226H347.896C347.499 55.2226 347.159 54.9109 346.876 54.2874C346.649 53.6073 346.536 53.0121 346.536 52.502C346.536 52.3886 346.564 52.2469 346.621 52.0769C346.734 51.8502 346.876 51.7085 347.046 51.6518C348.406 51.1417 349.851 50.3765 351.382 49.3562C352.969 48.2793 354.471 47.1457 355.888 45.9554C357.361 44.7651 358.552 43.7732 359.459 42.9797C359.855 42.6963 360.195 42.4413 360.479 42.2145C360.762 41.9878 361.131 41.8745 361.584 41.8745C362.094 41.8745 362.463 41.9878 362.689 42.2145C362.916 42.3846 362.973 42.838 362.859 43.5749L362.349 48.5911C362.293 49.2712 362.434 49.753 362.774 50.0364C363.171 50.2631 363.71 50.3765 364.39 50.3765H374.507C374.677 50.3765 374.847 50.5749 375.017 50.9716C375.187 51.3684 375.272 51.7368 375.272 52.0769C375.272 52.8704 375.159 53.6356 374.932 54.3724C374.706 55.1093 374.451 55.4777 374.167 55.4777H366.26C364.957 55.4777 364.05 55.6477 363.54 55.9878C363.086 56.2712 362.859 56.8097 362.859 57.6032V73.6721C362.859 76.2794 363.341 78.2348 364.305 79.5385C365.325 80.7854 366.657 81.4089 368.301 81.4089C369.944 81.4089 371.135 81.2389 371.872 80.8988C372.665 80.5587 373.374 80.2753 373.997 80.0486C374.224 79.9352 374.394 79.8785 374.507 79.8785C374.791 79.8785 375.017 80.0486 375.187 80.3887C375.357 80.7287 375.442 81.1255 375.442 81.579C375.442 81.919 374.847 82.5425 373.657 83.4494C372.467 84.3563 370.908 85.2065 368.981 86C367.11 86.7935 365.07 87.1903 362.859 87.1903Z" fill="black"/>
<path fill-rule="evenodd" clip-rule="evenodd" d="M62.0203 85.2348C65.8745 86.5385 70.0122 87.1903 74.4332 87.1903C77.9474 87.1903 81.1782 86.9069 84.1255 86.3401C87.0729 85.7733 89.6235 85.0364 91.7774 84.1296C92.3442 83.8462 92.7976 83.5344 93.1377 83.1943C93.5345 82.7976 93.8462 82.2591 94.0729 81.579C94.4697 80.332 94.8098 79.1134 95.0932 77.9231C95.3766 76.7328 95.5749 75.6275 95.6883 74.6073C95.8583 73.5304 95.9434 72.6235 95.9434 71.8866C95.9434 70.9798 95.5183 70.498 94.6681 70.4413C93.8745 70.3846 93.2511 70.8664 92.7976 71.8866C91.0405 75.5709 88.8583 78.3198 86.251 80.1336C83.6438 81.8907 80.2429 82.7692 76.0486 82.7692C72.8178 82.7692 70.0122 82.1174 67.6316 80.8138C65.251 79.5101 63.2389 77.6964 61.5952 75.3725C59.9514 73.0486 58.7328 70.2996 57.9393 67.1255C57.4233 65.0248 57.0751 62.8163 56.8946 60.5L44.7611 47.9959C43.2308 51.5101 42.4656 55.2227 42.4656 59.1336C42.4656 63.3279 43.2874 67.1538 44.9312 70.6113C46.5749 74.0688 48.8704 77.0445 51.8178 79.5385C54.7652 81.9757 58.166 83.8745 62.0203 85.2348ZM58.2877 33.8825C59.6017 33.1872 60.9876 32.5637 62.4454 32.0121C66.6964 30.3684 71.4858 29.5465 76.8138 29.5465C78.6276 29.5465 80.4413 29.6882 82.2551 29.9716C84.1255 30.1983 85.911 30.5384 87.6114 30.9919C89.3685 31.4453 90.9555 31.9271 92.3725 32.4372C92.8826 32.6639 93.3077 32.9757 93.6478 33.3724C94.0446 33.7125 94.2713 34.2226 94.328 34.9028C94.5547 36.7732 94.7247 38.587 94.8381 40.3441C94.9515 42.1012 95.0081 43.6882 95.0081 45.1052C95.0081 45.7287 94.7814 46.1538 94.328 46.3805C93.8745 46.6073 93.3644 46.6356 92.7976 46.4656C92.2875 46.2388 91.9191 45.7854 91.6923 45.1052C91.2956 43.8016 90.8138 42.4979 90.247 41.1943C89.7369 39.8906 88.9434 38.757 87.8664 37.7935C86.7328 36.6599 85.1458 35.7247 83.1053 34.9878C81.1215 34.251 78.7126 33.8825 75.8786 33.8825C72.9879 33.8825 70.3522 34.506 67.9717 35.753C66.3607 36.6174 64.8995 37.6998 63.5882 39L58.2877 33.8825Z" fill="black"/>
<path fill-rule="evenodd" clip-rule="evenodd" d="M26.6265 8.22917C27.5823 8.22917 28.5293 8.41911 29.4136 8.78867C30.2967 9.15776 31.1006 9.69908 31.7789 10.3828C31.7798 10.3837 31.7807 10.3846 31.7816 10.3855L68.8715 48.0583C70.9364 50.1557 72.4249 52.7506 73.1929 55.5919L75.9052 65.6265L65.2244 62.6874C62.9238 62.0543 60.8308 60.8256 59.1568 59.1252L21.4768 20.8531L21.4713 20.8476C20.7924 20.1625 20.2527 19.3481 19.8842 18.4504C19.5156 17.5525 19.3256 16.5896 19.3256 15.6166C19.3256 14.6435 19.5156 13.6806 19.8842 12.7827C20.2527 11.885 20.7924 11.0706 21.4713 10.3855C22.1502 9.70051 22.9551 9.15825 23.8394 8.78867C24.7236 8.41911 25.6706 8.22917 26.6265 8.22917ZM31.2071 4.49722C29.7555 3.89053 28.1989 3.578 26.6265 3.578C25.054 3.578 23.4974 3.89053 22.0458 4.49722C20.5942 5.10388 19.2767 5.99253 18.1678 7.11139C17.0589 8.2302 16.1804 9.5573 15.5815 11.0164C14.9825 12.4754 14.6745 14.0385 14.6745 15.6166C14.6745 17.1946 14.9825 18.7577 15.5815 20.2167C16.18 21.6747 17.0576 23.0008 18.1652 24.1191C18.1661 24.12 18.1669 24.1208 18.1678 24.1217L55.8423 62.3884C58.0904 64.6717 60.9009 66.3217 63.9904 67.1719L78.5952 71.1908C79.3998 71.4122 80.2614 71.1855 80.8529 70.5967C81.4444 70.008 81.675 69.1474 81.4572 68.3418L77.6829 54.3782C76.706 50.764 74.8126 47.4631 72.1859 44.7951L35.0906 7.11688L35.0852 7.11139C33.9763 5.99253 32.6587 5.10388 31.2071 4.49722Z" fill="black"/>
<path d="M68.7445 65.3032C74.2393 66.2641 74.7805 60.8987 74.3642 58.0959C74.9886 58.2961 76.3623 58.6965 76.8618 58.6965C77.4862 58.6965 77.4862 64.7026 77.4862 66.5044C77.4862 67.9458 76.6537 67.9058 76.2374 67.7056L69.9933 67.105C67.2875 66.104 63.2497 64.3422 68.7445 65.3032Z" fill="black"/>
<path d="M28.8797 13.3414L29.055 13.1308C29.3759 12.7453 29.958 12.717 30.3147 13.0697L65.4045 47.7619C68.3236 50.6479 70.4496 54.2376 71.5773 58.1845C71.809 58.9955 70.8166 59.5892 70.2116 59.0015L29.1871 19.1492C27.583 17.5909 27.449 15.0603 28.8797 13.3414Z" fill="black"/>
</svg>
