<svg width="114" height="40" viewBox="0 0 114 40" fill="none" xmlns="http://www.w3.org/2000/svg">
<path d="M20.8486 17.2315C19.9678 16.3506 18.922 15.6519 17.7712 15.1752C16.6203 14.6985 15.3868 14.4531 14.1411 14.4531C12.8954 14.4531 11.6619 14.6985 10.511 15.1752C9.36017 15.6519 8.31444 16.3506 7.43359 17.2315L14.1411 23.939L20.8486 17.2315Z" fill="#88938D"/>
<path d="M14.1504 23.9497C15.0312 24.8305 16.0769 25.5293 17.2278 26.006C18.3787 26.4827 19.6122 26.728 20.8579 26.728C22.1035 26.728 23.3372 26.4827 24.488 26.006C25.6389 25.5293 26.6847 24.8305 27.5655 23.9497L20.8579 17.2422L14.1504 23.9497Z" fill="#6A7871"/>
<path d="M14.1338 23.9458C13.2529 24.8266 12.2072 25.5254 11.0563 26.0021C9.90545 26.4788 8.67197 26.7241 7.42626 26.7241C6.18055 26.7241 4.94707 26.4788 3.79618 26.0021C2.64532 25.5254 1.59959 24.8266 0.71875 23.9458L7.42626 17.2383L14.1338 23.9458Z" fill="#A7ABA9"/>
<path d="M20.8652 17.2315C21.746 16.3506 22.7918 15.6519 23.9426 15.1752C25.0935 14.6985 26.3271 14.4531 27.5727 14.4531C28.8186 14.4531 30.0519 14.6985 31.2027 15.1752C32.3536 15.6519 33.3994 16.3506 34.2802 17.2315L27.5727 23.939L20.8652 17.2315Z" fill="#A7ABA9"/>
<path d="M47.1108 27.6315L43 13.2986H44.1845L47.698 25.6209L51.2016 13.2986H52.406L55.9195 25.6209L59.4231 13.2986H60.6275L56.5068 27.6315H55.3323L51.8088 15.349L48.2853 27.6315H47.1108Z" fill="#6A7871"/>
<path d="M60.0012 27.6315L65.0774 13.2986H66.5007L71.577 27.6315H70.3627L65.4855 13.8958H66.0628L61.2155 27.6315H60.0012ZM62.1013 24.0284V22.9434H69.4668V24.0284H62.1013Z" fill="#6A7871"/>
<path d="M75.7431 27.6315L70.6669 13.2986H71.8812L76.4398 26.1982L81.0283 13.2986H82.2426L77.1664 27.6315H75.7431Z" fill="#6A7871"/>
<path d="M83.7416 27.6315V13.2986H92.6001V14.4134H84.8862V19.8579H91.4057V20.9727H84.8862V26.5167H92.6001V27.6315H83.7416Z" fill="#6A7871"/>
<path d="M99.2037 27.9301C98.2216 27.9301 97.3358 27.7675 96.5461 27.4424C95.7631 27.1172 95.1129 26.6561 94.5953 26.0589C94.0843 25.4616 93.7426 24.7516 93.5701 23.9288L94.7446 23.7298C94.9901 24.6853 95.5143 25.4384 96.3172 25.9892C97.1268 26.5399 98.0989 26.8153 99.2336 26.8153C100.003 26.8153 100.683 26.6926 101.274 26.447C101.865 26.2015 102.326 25.8565 102.658 25.4119C102.989 24.9607 103.155 24.4364 103.155 23.8392C103.155 23.4079 103.076 23.0463 102.916 22.7543C102.764 22.4624 102.565 22.2235 102.319 22.0377C102.074 21.8452 101.811 21.6926 101.533 21.5798C101.254 21.4604 100.992 21.3642 100.746 21.2912L97.1433 20.2162C96.6656 20.0769 96.2376 19.9043 95.8594 19.6986C95.4878 19.4863 95.1726 19.2441 94.9138 18.972C94.6616 18.6933 94.4659 18.3782 94.3265 18.0265C94.1938 17.6748 94.1275 17.2833 94.1275 16.852C94.1275 16.0822 94.3332 15.4087 94.7446 14.8314C95.156 14.2541 95.72 13.8062 96.4367 13.4877C97.1599 13.1626 97.9894 13 98.925 13C99.8673 13.0066 100.713 13.1825 101.463 13.5275C102.213 13.8659 102.827 14.347 103.305 14.9708C103.789 15.5945 104.101 16.3344 104.24 17.1904L103.056 17.3994C102.963 16.7425 102.724 16.1685 102.339 15.6775C101.961 15.1864 101.476 14.8049 100.886 14.5328C100.295 14.2608 99.6383 14.1247 98.915 14.1247C98.2183 14.1181 97.6012 14.2342 97.0637 14.4731C96.5329 14.712 96.1148 15.0338 95.8096 15.4386C95.5044 15.8434 95.3517 16.3012 95.3517 16.8122C95.3517 17.343 95.4944 17.7677 95.7797 18.0862C96.0717 18.3981 96.4267 18.6436 96.8447 18.8227C97.2694 19.0019 97.6742 19.1479 98.0591 19.2607L100.946 20.1167C101.218 20.1963 101.543 20.3091 101.921 20.4551C102.299 20.6011 102.671 20.8101 103.036 21.0822C103.401 21.3476 103.703 21.7026 103.942 22.1472C104.187 22.5851 104.31 23.1359 104.31 23.7994C104.31 24.4431 104.187 25.0204 103.942 25.5313C103.696 26.0423 103.344 26.4769 102.886 26.8352C102.429 27.1869 101.888 27.4556 101.264 27.6414C100.64 27.8339 99.9535 27.9301 99.2037 27.9301Z" fill="#6A7871"/>
</svg>
