<svg width="93" height="40" viewBox="0 0 93 40" fill="none" xmlns="http://www.w3.org/2000/svg">
<path d="M10.5837 8.28125H24.1081L14.165 23.0189H0.640625L10.5837 8.28125Z" fill="#88938D"/>
<path d="M11.1774 24.3848L7.32617 30.0931H21.492L31.4351 15.3555H20.9798L14.8879 24.3848H11.1774Z" fill="#6A7871"/>
<path d="M38.6426 25.5476V12.7812H40.7792V23.544H46.4176V25.5476H38.6426Z" fill="#88938D"/>
<path d="M50.5969 25.8135C49.9054 25.8135 49.3202 25.6835 48.8415 25.4234C48.3628 25.1575 47.9993 24.8058 47.751 24.3684C47.5087 23.9311 47.3876 23.4494 47.3876 22.9234C47.3876 22.4624 47.4644 22.0486 47.6181 21.6822C47.7717 21.3099 48.0081 20.9907 48.3273 20.7247C48.6465 20.4529 49.0602 20.2312 49.5685 20.0598C49.9526 19.9357 50.4018 19.8234 50.916 19.7229C51.4361 19.6225 51.9976 19.5308 52.6005 19.4481C53.2092 19.3594 53.8446 19.2649 54.5065 19.1644L53.7441 19.5988C53.75 18.9369 53.6023 18.4493 53.3008 18.136C52.9994 17.8228 52.4911 17.6661 51.776 17.6661C51.3445 17.6661 50.9278 17.7666 50.5259 17.9676C50.124 18.1685 49.8433 18.5143 49.6837 19.0048L47.7333 18.3931C47.9697 17.5834 48.4189 16.9333 49.0809 16.4427C49.7487 15.9521 50.6471 15.7069 51.776 15.7069C52.6271 15.7069 53.3747 15.8458 54.0189 16.1235C54.6691 16.4013 55.1508 16.8564 55.464 17.4888C55.6354 17.8257 55.7388 18.1715 55.7743 18.5261C55.8098 18.8748 55.8275 19.256 55.8275 19.6697V25.5476H53.9569V23.473L54.2672 23.8099C53.8357 24.5014 53.3304 25.0097 52.7512 25.3348C52.1779 25.6539 51.4598 25.8135 50.5969 25.8135ZM51.0224 24.1113C51.5071 24.1113 51.9208 24.0256 52.2636 23.8542C52.6064 23.6828 52.8783 23.473 53.0792 23.2248C53.2861 22.9766 53.425 22.7431 53.4959 22.5244C53.6082 22.2526 53.6702 21.9423 53.6821 21.5935C53.6998 21.2389 53.7087 20.9523 53.7087 20.7336L54.3647 20.9286C53.7205 21.0291 53.1679 21.1178 52.7069 21.1946C52.2458 21.2714 51.8499 21.3453 51.5189 21.4162C51.1879 21.4813 50.8953 21.5551 50.6412 21.6379C50.393 21.7265 50.1831 21.83 50.0117 21.9482C49.8403 22.0664 49.7074 22.2023 49.6128 22.356C49.5241 22.5097 49.4798 22.6899 49.4798 22.8968C49.4798 23.1332 49.5389 23.343 49.6571 23.5262C49.7753 23.7035 49.9467 23.8454 50.1713 23.9518C50.4018 24.0582 50.6855 24.1113 51.0224 24.1113Z" fill="#88938D"/>
<path d="M58.8577 29.803L60.7017 24.7408L60.7372 26.2302L56.5615 15.9728H58.7868L61.7479 23.5617H61.1805L64.0617 15.9728H66.1983L60.8613 29.803H58.8577Z" fill="#88938D"/>
<path d="M71.5272 25.8135C70.5579 25.8135 69.7068 25.6037 68.9739 25.1841C68.241 24.7644 67.6677 24.1823 67.254 23.4376C66.8462 22.6929 66.6423 21.8359 66.6423 20.8666C66.6423 19.8205 66.8432 18.9132 67.2452 18.1449C67.6471 17.3706 68.2056 16.7707 68.9207 16.3452C69.6359 15.9196 70.4633 15.7069 71.4031 15.7069C72.396 15.7069 73.2382 15.9403 73.9297 16.4072C74.6272 16.8682 75.1443 17.5213 75.4812 18.3665C75.8181 19.2117 75.9452 20.2076 75.8624 21.3542H73.7436V20.574C73.7376 19.5338 73.5544 18.7743 73.1939 18.2956C72.8334 17.8168 72.266 17.5775 71.4917 17.5775C70.617 17.5775 69.9669 17.8494 69.5413 18.3931C69.1158 18.9309 68.903 19.72 68.903 20.7602C68.903 21.7295 69.1158 22.4801 69.5413 23.012C69.9669 23.544 70.5874 23.8099 71.4031 23.8099C71.9291 23.8099 72.3812 23.6947 72.7595 23.4642C73.1437 23.2278 73.4392 22.8879 73.646 22.4446L75.756 23.083C75.3896 23.9459 74.8222 24.6167 74.0538 25.0954C73.2914 25.5742 72.4492 25.8135 71.5272 25.8135ZM68.2292 21.3542V19.7407H74.8163V21.3542H68.2292Z" fill="#88938D"/>
<path d="M77.8405 25.5476V15.9728H79.7289V18.3045L79.4984 18.003C79.6166 17.6839 79.7732 17.3943 79.9682 17.1342C80.1692 16.8682 80.4086 16.6496 80.6863 16.4782C80.9228 16.3186 81.1828 16.1945 81.4665 16.1058C81.7561 16.0112 82.0516 15.9551 82.3531 15.9374C82.6545 15.9137 82.947 15.9255 83.2307 15.9728V17.9676C82.947 17.8848 82.619 17.8582 82.2467 17.8878C81.8802 17.9173 81.5493 18.0208 81.2537 18.1981C80.9582 18.3576 80.7159 18.5616 80.5268 18.8098C80.3435 19.058 80.2076 19.3417 80.1189 19.6609C80.0303 19.9741 79.986 20.314 79.986 20.6804V25.5476H77.8405Z" fill="#88938D"/>
<path d="M88.2731 25.8135C87.0911 25.8135 86.1306 25.5476 85.3918 25.0156C84.653 24.4837 84.2039 23.736 84.0443 22.7727L86.2252 22.4358C86.3375 22.9086 86.5857 23.2809 86.9699 23.5528C87.3541 23.8247 87.8387 23.9606 88.4238 23.9606C88.938 23.9606 89.334 23.8602 89.6118 23.6592C89.8955 23.4523 90.0374 23.1716 90.0374 22.817C90.0374 22.5983 89.9842 22.424 89.8778 22.2939C89.7773 22.158 89.5527 22.028 89.204 21.9038C88.8553 21.7797 88.3204 21.6231 87.5993 21.434C86.7955 21.2212 86.1572 20.9937 85.6844 20.7513C85.2116 20.5031 84.8717 20.2105 84.6649 19.8736C84.458 19.5368 84.3546 19.1289 84.3546 18.6502C84.3546 18.0533 84.5112 17.5332 84.8244 17.0899C85.1377 16.6466 85.5751 16.3068 86.1365 16.0703C86.698 15.828 87.36 15.7069 88.1224 15.7069C88.8671 15.7069 89.5261 15.8221 90.0994 16.0526C90.6786 16.2831 91.1455 16.6111 91.5002 17.0367C91.8548 17.4622 92.0735 17.9617 92.1562 18.535L89.9753 18.925C89.9221 18.5172 89.7359 18.1951 89.4168 17.9587C89.1035 17.7223 88.6839 17.5893 88.1579 17.5598C87.6555 17.5302 87.2506 17.607 86.9433 17.7903C86.636 17.9676 86.4823 18.2188 86.4823 18.5438C86.4823 18.727 86.5444 18.8837 86.6685 19.0137C86.7926 19.1437 87.0408 19.2737 87.4132 19.4038C87.7914 19.5338 88.3529 19.6934 89.0976 19.8825C89.86 20.0776 90.4688 20.3021 90.9239 20.5563C91.3849 20.8045 91.7159 21.103 91.9168 21.4517C92.1237 21.8004 92.2271 22.223 92.2271 22.7195C92.2271 23.6828 91.8755 24.4394 91.1721 24.989C90.4747 25.5387 89.5084 25.8135 88.2731 25.8135Z" fill="#88938D"/>
</svg>
