<svg width="99" height="40" viewBox="0 0 99 40" fill="none" xmlns="http://www.w3.org/2000/svg">
<path fill-rule="evenodd" clip-rule="evenodd" d="M13.4063 33.8125C20.8103 33.8125 26.8125 27.8103 26.8125 20.4062C26.8125 13.0022 20.8103 7 13.4063 7C6.00218 7 0 13.0022 0 20.4062C0 27.8103 6.00218 33.8125 13.4063 33.8125ZM17.5886 13.2452C17.7921 12.5221 17.0904 12.0945 16.4495 12.5511L7.50289 18.9246C6.80785 19.4197 6.91717 20.4062 7.66712 20.4062H10.023V20.388H14.6145L10.8733 21.7081L9.22399 27.5673C9.02042 28.2905 9.7221 28.7181 10.3631 28.2614L19.3097 21.888C20.0047 21.3928 19.8953 20.4062 19.1454 20.4062H15.5728L17.5886 13.2452Z" fill="#88938D"/>
<path d="M38.6895 17.5307H35.7031V15.7709H43.8357V17.5307H40.8493V25.1033H38.6895V17.5307Z" fill="#88938D"/>
<path d="M49.2107 17.824C50.0995 17.824 50.815 18.0907 51.3572 18.6239C51.9082 19.1572 52.1838 19.9483 52.1838 20.9971V25.1033H50.104V21.317C50.104 20.7482 49.9795 20.326 49.7307 20.0505C49.4818 19.7661 49.1218 19.6239 48.6508 19.6239C48.1264 19.6239 47.7086 19.7883 47.3975 20.1171C47.0865 20.4371 46.9309 20.9171 46.9309 21.557V25.1033H44.8511V15.2109H46.9309V18.6773C47.2064 18.4017 47.5398 18.1929 47.9308 18.0507C48.3219 17.8996 48.7485 17.824 49.2107 17.824Z" fill="#88938D"/>
<path d="M61.295 17.9307V25.1033H59.3218V24.2501C59.0463 24.5612 58.7174 24.8011 58.3353 24.97C57.9531 25.13 57.5398 25.21 57.0954 25.21C56.1532 25.21 55.4066 24.9389 54.8556 24.3967C54.3045 23.8546 54.029 23.0502 54.029 21.9836V17.9307H56.1088V21.677C56.1088 22.8324 56.5932 23.4102 57.562 23.4102C58.0597 23.4102 58.4597 23.2502 58.7619 22.9302C59.0641 22.6014 59.2152 22.117 59.2152 21.477V17.9307H61.295Z" fill="#88938D"/>
<path d="M67.5814 17.824C68.4702 17.824 69.1857 18.0907 69.7278 18.6239C70.2789 19.1572 70.5544 19.9483 70.5544 20.9971V25.1033H68.4746V21.317C68.4746 20.7482 68.3502 20.326 68.1013 20.0505C67.8525 19.7661 67.4925 19.6239 67.0214 19.6239C66.497 19.6239 66.0793 19.7883 65.7682 20.1171C65.4571 20.4371 65.3016 20.9171 65.3016 21.557V25.1033H63.2218V17.9307H65.2083V18.7706C65.4838 18.4684 65.826 18.2373 66.2348 18.0773C66.6437 17.9085 67.0925 17.824 67.5814 17.824Z" fill="#88938D"/>
<path d="M79.8238 15.2109V25.1033H77.8373V24.2767C77.3218 24.8989 76.5752 25.21 75.5975 25.21C74.922 25.21 74.3087 25.0589 73.7577 24.7567C73.2155 24.4545 72.7889 24.0234 72.4778 23.4635C72.1667 22.9035 72.0112 22.2547 72.0112 21.517C72.0112 20.7793 72.1667 20.1305 72.4778 19.5705C72.7889 19.0106 73.2155 18.5795 73.7577 18.2773C74.3087 17.9751 74.922 17.824 75.5975 17.824C76.513 17.824 77.2284 18.1129 77.744 18.6906V15.2109H79.8238ZM75.9575 23.5035C76.4818 23.5035 76.9174 23.3257 77.264 22.9702C77.6106 22.6058 77.7839 22.1214 77.7839 21.517C77.7839 20.9126 77.6106 20.4327 77.264 20.0771C76.9174 19.7127 76.4818 19.5305 75.9575 19.5305C75.4242 19.5305 74.9842 19.7127 74.6376 20.0771C74.2909 20.4327 74.1176 20.9126 74.1176 21.517C74.1176 22.1214 74.2909 22.6058 74.6376 22.9702C74.9842 23.3257 75.4242 23.5035 75.9575 23.5035Z" fill="#88938D"/>
<path d="M88.7747 21.5437C88.7747 21.5703 88.7613 21.757 88.7347 22.1036H83.3085C83.4063 22.548 83.6374 22.8991 84.0018 23.1569C84.3662 23.4146 84.8195 23.5435 85.3617 23.5435C85.735 23.5435 86.0638 23.4902 86.3482 23.3835C86.6415 23.268 86.9126 23.0902 87.1615 22.8502L88.2681 24.0501C87.5926 24.8234 86.606 25.21 85.3083 25.21C84.4995 25.21 83.784 25.0545 83.1619 24.7434C82.5397 24.4234 82.0598 23.9834 81.722 23.4235C81.3843 22.8635 81.2154 22.2281 81.2154 21.517C81.2154 20.8149 81.3798 20.1838 81.7087 19.6239C82.0464 19.055 82.5042 18.6151 83.0819 18.304C83.6685 17.984 84.3218 17.824 85.0417 17.824C85.7439 17.824 86.3793 17.9751 86.9482 18.2773C87.517 18.5795 87.9614 19.015 88.2814 19.5839C88.6102 20.1438 88.7747 20.7971 88.7747 21.5437ZM85.055 19.3972C84.584 19.3972 84.1884 19.5305 83.8685 19.7972C83.5485 20.0638 83.353 20.4282 83.2819 20.8904H86.8149C86.7438 20.4371 86.5482 20.0771 86.2283 19.8105C85.9083 19.535 85.5172 19.3972 85.055 19.3972Z" fill="#88938D"/>
<path d="M92.1458 18.8773C92.3947 18.5306 92.728 18.2684 93.1457 18.0907C93.5724 17.9129 94.0612 17.824 94.6123 17.824V19.7438C94.3812 19.7261 94.2256 19.7172 94.1456 19.7172C93.5501 19.7172 93.0835 19.8861 92.7458 20.2238C92.408 20.5527 92.2391 21.0504 92.2391 21.717V25.1033H90.1593V17.9307H92.1458V18.8773Z" fill="#88938D"/>
</svg>
