<svg width="42" height="42" viewBox="0 0 42 42" fill="none" xmlns="http://www.w3.org/2000/svg">
<path d="M19.584 9.66797H9.66732C8.91587 9.66797 8.1952 9.96648 7.66385 10.4978C7.1325 11.0292 6.83398 11.7499 6.83398 12.5013V32.3346C6.83398 33.0861 7.1325 33.8068 7.66385 34.3381C8.1952 34.8695 8.91587 35.168 9.66732 35.168H29.5007C30.2521 35.168 30.9728 34.8695 31.5041 34.3381C32.0355 33.8068 32.334 33.0861 32.334 32.3346V22.418" stroke="#6A7871" stroke-width="2" stroke-linecap="round" stroke-linejoin="round"/>
<path d="M30.209 7.54036C30.7726 6.97678 31.537 6.66016 32.334 6.66016C33.131 6.66016 33.8954 6.97678 34.459 7.54036C35.0226 8.10395 35.3392 8.86833 35.3392 9.66536C35.3392 10.4624 35.0226 11.2268 34.459 11.7904L21.0007 25.2487L15.334 26.6654L16.7507 20.9987L30.209 7.54036Z" stroke="#6A7871" stroke-width="2" stroke-linecap="round" stroke-linejoin="round"/>
</svg>
